#include <stdint.h>
const uint8_t midifile[] = {
0x4d,0x54,0x68,0x64,0x00,0x00,0x00,0x06,0x00,0x01,0x00,0x17,0x00,0x78,0x4d,0x54,
0x72,0x6b,0x00,0x00,0x00,0xad,0x00,0xff,0x02,0x22,0x43,0x6f,0x70,0x79,0x72,0x69,
0x67,0x68,0x74,0x20,0xa9,0x20,0x31,0x39,0x39,0x36,0x20,0x62,0x79,0x20,0x42,0x4b,
0x20,0x45,0x4e,0x54,0x45,0x52,0x50,0x52,0x49,0x53,0x45,0x53,0x00,0xff,0x21,0x01,
0x00,0x00,0xf0,0x0a,0x41,0x10,0x42,0x12,0x40,0x00,0x7f,0x00,0x41,0xf7,0x00,0xff,
0x21,0x01,0x00,0x00,0xff,0x58,0x04,0x04,0x02,0x18,0x08,0x00,0xff,0x59,0x02,0x04,
0x00,0x00,0xff,0x51,0x03,0x06,0x8a,0x1b,0x00,0xff,0x06,0x53,0x56,0x69,0x73,0x69,
0x74,0x20,0x74,0x68,0x65,0x20,0x55,0x6e,0x6f,0x66,0x66,0x69,0x63,0x69,0x61,0x6c,
0x20,0x54,0x65,0x74,0x72,0x69,0x73,0x20,0x48,0x6f,0x6d,0x65,0x20,0x50,0x61,0x67,
0x65,0x20,0x61,0x74,0x20,0x68,0x74,0x74,0x70,0x3a,0x2f,0x2f,0x77,0x77,0x77,0x2e,
0x64,0x72,0x61,0x67,0x6f,0x6e,0x66,0x69,0x72,0x65,0x2e,0x6e,0x65,0x74,0x2f,0x7e,
0x4a,0x43,0x68,0x61,0x76,0x65,0x7a,0x2f,0x74,0x65,0x74,0x72,0x69,0x73,0x2f,0x00,
0xff,0x2f,0x00,0x4d,0x54,0x72,0x6b,0x00,0x00,0x0a,0xca,0x00,0xff,0x21,0x01,0x00,
0x00,0xff,0x03,0x08,0x53,0x61,0x77,0x20,0x42,0x61,0x73,0x73,0x00,0xb0,0x00,0x00,
0x00,0x20,0x00,0x00,0xc0,0x51,0x00,0xb0,0x07,0x78,0x00,0x0a,0x24,0x00,0x5b,0x00,
0x00,0x5d,0x14,0x83,0x60,0x90,0x28,0x64,0x3c,0x28,0x00,0x00,0x34,0x64,0x3c,0x34,
0x00,0x00,0x28,0x64,0x3c,0x28,0x00,0x00,0x34,0x64,0x3c,0x34,0x00,0x00,0x28,0x64,
0x3c,0x28,0x00,0x00,0x34,0x64,0x3c,0x34,0x00,0x00,0x28,0x64,0x3c,0x28,0x00,0x00,
0x34,0x64,0x3c,0x34,0x00,0x00,0x2d,0x64,0x3c,0x2d,0x00,0x00,0x39,0x64,0x3c,0x39,
0x00,0x00,0x2d,0x64,0x3c,0x2d,0x00,0x00,0x39,0x64,0x3c,0x39,0x00,0x00,0x2d,0x64,
0x3c,0x2d,0x00,0x00,0x39,0x64,0x3c,0x39,0x00,0x00,0x2d,0x64,0x3c,0x2d,0x00,0x00,
0x29,0x64,0x3c,0x29,0x00,0x00,0x2c,0x64,0x3c,0x2c,0x00,0x00,0x38,0x64,0x3c,0x38,
0x00,0x00,0x2c,0x64,0x3c,0x2c,0x00,0x00,0x38,0x64,0x3c,0x38,0x00,0x00,0x28,0x64,
0x3c,0x28,0x00,0x00,0x34,0x64,0x3c,0x34,0x00,0x00,0x28,0x64,0x3c,0x28,0x00,0x00,
0x34,0x64,0x3c,0x34,0x00,0x00,0x2d,0x64,0x3c,0x2d,0x00,0x00,0x39,0x64,0x3c,0x39,
0x00,0x00,0x2d,0x64,0x3c,0x2d,0x00,0x00,0x39,0x64,0x3c,0x39,0x00,0x00,0x2d,0x64,
0x3c,0x2d,0x00,0x00,0x39,0x64,0x3c,0x39,0x00,0x00,0x23,0x64,0x3c,0x23,0x00,0x00,
0x24,0x64,0x3c,0x24,0x00,0x00,0x26,0x64,0x3c,0x26,0x00,0x00,0x32,0x64,0x3c,0x32,
0x00,0x00,0x26,0x64,0x3c,0x26,0x00,0x00,0x32,0x64,0x3c,0x32,0x00,0x00,0x26,0x64,
0x3c,0x26,0x00,0x00,0x32,0x64,0x3c,0x32,0x00,0x00,0x26,0x64,0x3c,0x26,0x00,0x00,
0x32,0x64,0x3c,0x32,0x00,0x00,0x24,0x64,0x3c,0x24,0x00,0x00,0x30,0x64,0x3c,0x30,
0x00,0x00,0x24,0x64,0x3c,0x24,0x00,0x00,0x30,0x64,0x3c,0x30,0x00,0x00,0x24,0x64,
0x3c,0x24,0x00,0x00,0x30,0x64,0x3c,0x30,0x00,0x00,0x24,0x64,0x3c,0x24,0x00,0x00,
0x30,0x64,0x3c,0x30,0x00,0x00,0x2c,0x64,0x3c,0x2c,0x00,0x00,0x38,0x64,0x3c,0x38,
0x00,0x00,0x2c,0x64,0x3c,0x2c,0x00,0x00,0x38,0x64,0x3c,0x38,0x00,0x00,0x28,0x64,
0x3c,0x28,0x00,0x00,0x34,0x64,0x3c,0x34,0x00,0x00,0x28,0x64,0x3c,0x28,0x00,0x00,
0x34,0x64,0x3c,0x34,0x00,0x00,0x2d,0x64,0x3c,0x2d,0x00,0x00,0x39,0x64,0x3c,0x39,
0x00,0x00,0x2d,0x64,0x3c,0x2d,0x00,0x00,0x39,0x64,0x3c,0x39,0x00,0x00,0x2d,0x64,
0x3c,0x2d,0x00,0x00,0x39,0x64,0x3c,0x39,0x00,0x00,0x2d,0x64,0x3c,0x2d,0x00,0x00,
0x2c,0x64,0x3c,0x2c,0x00,0x00,0x28,0x64,0x3c,0x28,0x00,0x00,0x34,0x64,0x3c,0x34,
0x00,0x00,0x28,0x64,0x3c,0x28,0x00,0x00,0x34,0x64,0x3c,0x34,0x00,0x00,0x28,0x64,
0x3c,0x28,0x00,0x00,0x34,0x64,0x3c,0x34,0x00,0x00,0x28,0x64,0x3c,0x28,0x00,0x00,
0x34,0x64,0x3c,0x34,0x00,0x00,0x2d,0x64,0x3c,0x2d,0x00,0x00,0x39,0x64,0x3c,0x39,
0x00,0x00,0x2d,0x64,0x3c,0x2d,0x00,0x00,0x39,0x64,0x3c,0x39,0x00,0x00,0x2d,0x64,
0x3c,0x2d,0x00,0x00,0x39,0x64,0x3c,0x39,0x00,0x00,0x2d,0x64,0x3c,0x2d,0x00,0x00,
0x29,0x64,0x3c,0x29,0x00,0x00,0x2c,0x64,0x3c,0x2c,0x00,0x00,0x38,0x64,0x3c,0x38,
0x00,0x00,0x2c,0x64,0x3c,0x2c,0x00,0x00,0x38,0x64,0x3c,0x38,0x00,0x00,0x28,0x64,
0x3c,0x28,0x00,0x00,0x34,0x64,0x3c,0x34,0x00,0x00,0x28,0x64,0x3c,0x28,0x00,0x00,
0x34,0x64,0x3c,0x34,0x00,0x00,0x2d,0x64,0x3c,0x2d,0x00,0x00,0x39,0x64,0x3c,0x39,
0x00,0x00,0x2d,0x64,0x3c,0x2d,0x00,0x00,0x39,0x64,0x3c,0x39,0x00,0x00,0x2d,0x64,
0x3c,0x2d,0x00,0x00,0x39,0x64,0x3c,0x39,0x00,0x00,0x23,0x64,0x3c,0x23,0x00,0x00,
0x24,0x64,0x3c,0x24,0x00,0x00,0x26,0x64,0x3c,0x26,0x00,0x00,0x32,0x64,0x3c,0x32,
0x00,0x00,0x26,0x64,0x3c,0x26,0x00,0x00,0x32,0x64,0x3c,0x32,0x00,0x00,0x26,0x64,
0x3c,0x26,0x00,0x00,0x32,0x64,0x3c,0x32,0x00,0x00,0x26,0x64,0x3c,0x26,0x00,0x00,
0x32,0x64,0x3c,0x32,0x00,0x00,0x24,0x64,0x3c,0x24,0x00,0x00,0x30,0x64,0x3c,0x30,
0x00,0x00,0x24,0x64,0x3c,0x24,0x00,0x00,0x30,0x64,0x3c,0x30,0x00,0x00,0x24,0x64,
0x3c,0x24,0x00,0x00,0x30,0x64,0x3c,0x30,0x00,0x00,0x24,0x64,0x3c,0x24,0x00,0x00,
0x30,0x64,0x3c,0x30,0x00,0x00,0x2c,0x64,0x3c,0x2c,0x00,0x00,0x38,0x64,0x3c,0x38,
0x00,0x00,0x2c,0x64,0x3c,0x2c,0x00,0x00,0x38,0x64,0x3c,0x38,0x00,0x00,0x28,0x64,
0x3c,0x28,0x00,0x00,0x34,0x64,0x3c,0x34,0x00,0x00,0x28,0x64,0x3c,0x28,0x00,0x00,
0x34,0x64,0x3c,0x34,0x00,0x00,0x2d,0x64,0x3c,0x2d,0x00,0x00,0x39,0x64,0x3c,0x39,
0x00,0x00,0x2d,0x64,0x3c,0x2d,0x00,0x00,0x39,0x64,0x3c,0x39,0x00,0x00,0x2d,0x64,
0x3c,0x2d,0x00,0x00,0x39,0x64,0x3c,0x39,0x00,0x00,0x2d,0x64,0x3c,0x2d,0x00,0x00,
0x2c,0x64,0x3c,0x2c,0x00,0x00,0x2d,0x64,0x00,0x21,0x64,0x3c,0x21,0x00,0x00,0x2d,
0x00,0x00,0x2d,0x64,0x00,0x21,0x64,0x3c,0x21,0x00,0x00,0x2d,0x00,0x00,0x2d,0x64,
0x00,0x21,0x64,0x3c,0x21,0x00,0x00,0x2d,0x00,0x00,0x2d,0x64,0x00,0x21,0x64,0x3c,
0x21,0x00,0x00,0x2d,0x00,0x00,0x2d,0x64,0x00,0x21,0x64,0x3c,0x21,0x00,0x00,0x2d,
0x00,0x00,0x2d,0x64,0x00,0x21,0x64,0x3c,0x21,0x00,0x00,0x2d,0x00,0x00,0x2d,0x64,
0x00,0x21,0x64,0x3c,0x21,0x00,0x00,0x2d,0x00,0x00,0x2d,0x64,0x00,0x21,0x64,0x3c,
0x21,0x00,0x00,0x2d,0x00,0x00,0x1c,0x64,0x00,0x28,0x64,0x3c,0x28,0x00,0x00,0x1c,
0x00,0x00,0x1c,0x64,0x00,0x28,0x64,0x3c,0x28,0x00,0x00,0x1c,0x00,0x00,0x28,0x64,
0x00,0x1c,0x64,0x3c,0x1c,0x00,0x00,0x28,0x00,0x00,0x28,0x64,0x00,0x1c,0x64,0x3c,
0x1c,0x00,0x00,0x28,0x00,0x00,0x1c,0x64,0x00,0x28,0x64,0x3c,0x28,0x00,0x00,0x1c,
0x00,0x00,0x1c,0x64,0x00,0x28,0x64,0x3c,0x28,0x00,0x00,0x1c,0x00,0x00,0x1c,0x64,
0x00,0x28,0x64,0x3c,0x28,0x00,0x00,0x1c,0x00,0x00,0x1c,0x64,0x00,0x28,0x64,0x3c,
0x28,0x00,0x00,0x1c,0x00,0x00,0x2d,0x64,0x00,0x21,0x64,0x3c,0x21,0x00,0x00,0x2d,
0x00,0x00,0x2d,0x64,0x00,0x21,0x64,0x3c,0x21,0x00,0x00,0x2d,0x00,0x00,0x2d,0x64,
0x00,0x21,0x64,0x3c,0x21,0x00,0x00,0x2d,0x00,0x00,0x2d,0x64,0x00,0x21,0x64,0x3c,
0x21,0x00,0x00,0x2d,0x00,0x00,0x2d,0x64,0x00,0x21,0x64,0x3c,0x21,0x00,0x00,0x2d,
0x00,0x00,0x2d,0x64,0x00,0x21,0x64,0x3c,0x21,0x00,0x00,0x2d,0x00,0x00,0x2d,0x64,
0x00,0x21,0x64,0x3c,0x21,0x00,0x00,0x2d,0x00,0x00,0x2d,0x64,0x00,0x21,0x64,0x3c,
0x21,0x00,0x00,0x2d,0x00,0x00,0x1c,0x64,0x00,0x28,0x64,0x3c,0x28,0x00,0x00,0x1c,
0x00,0x00,0x1c,0x64,0x00,0x28,0x64,0x3c,0x28,0x00,0x00,0x1c,0x00,0x00,0x28,0x64,
0x00,0x1c,0x64,0x3c,0x1c,0x00,0x00,0x28,0x00,0x00,0x28,0x64,0x00,0x1c,0x64,0x3c,
0x1c,0x00,0x00,0x28,0x00,0x00,0x1c,0x64,0x00,0x28,0x64,0x3c,0x28,0x00,0x00,0x1c,
0x00,0x00,0x1c,0x64,0x00,0x28,0x64,0x3c,0x28,0x00,0x00,0x1c,0x00,0x00,0x1c,0x64,
0x00,0x28,0x64,0x3c,0x28,0x00,0x00,0x1c,0x00,0x00,0x1c,0x64,0x00,0x28,0x64,0x3c,
0x28,0x00,0x00,0x1c,0x00,0x00,0x2d,0x64,0x00,0x21,0x64,0x3c,0x21,0x00,0x00,0x2d,
0x00,0x00,0x2d,0x64,0x00,0x21,0x64,0x3c,0x21,0x00,0x00,0x2d,0x00,0x00,0x2d,0x64,
0x00,0x21,0x64,0x3c,0x21,0x00,0x00,0x2d,0x00,0x00,0x2d,0x64,0x00,0x21,0x64,0x3c,
0x21,0x00,0x00,0x2d,0x00,0x00,0x2d,0x64,0x00,0x21,0x64,0x3c,0x21,0x00,0x00,0x2d,
0x00,0x00,0x2d,0x64,0x00,0x21,0x64,0x3c,0x21,0x00,0x00,0x2d,0x00,0x00,0x2d,0x64,
0x00,0x21,0x64,0x3c,0x21,0x00,0x00,0x2d,0x00,0x00,0x2d,0x64,0x00,0x21,0x64,0x3c,
0x21,0x00,0x00,0x2d,0x00,0x00,0x1c,0x64,0x00,0x28,0x64,0x3c,0x28,0x00,0x00,0x1c,
0x00,0x00,0x1c,0x64,0x00,0x28,0x64,0x3c,0x28,0x00,0x00,0x1c,0x00,0x00,0x28,0x64,
0x00,0x1c,0x64,0x3c,0x1c,0x00,0x00,0x28,0x00,0x00,0x28,0x64,0x00,0x1c,0x64,0x3c,
0x1c,0x00,0x00,0x28,0x00,0x00,0x1c,0x64,0x00,0x28,0x64,0x3c,0x28,0x00,0x00,0x1c,
0x00,0x00,0x1c,0x64,0x00,0x28,0x64,0x3c,0x28,0x00,0x00,0x1c,0x00,0x00,0x1c,0x64,
0x00,0x28,0x64,0x3c,0x28,0x00,0x00,0x1c,0x00,0x00,0x1c,0x64,0x00,0x28,0x64,0x3c,
0x28,0x00,0x00,0x1c,0x00,0x00,0x2d,0x64,0x00,0x21,0x64,0x3c,0x21,0x00,0x00,0x2d,
0x00,0x00,0x2d,0x64,0x00,0x21,0x64,0x3c,0x21,0x00,0x00,0x2d,0x00,0x00,0x2d,0x64,
0x00,0x21,0x64,0x3c,0x21,0x00,0x00,0x2d,0x00,0x00,0x2d,0x64,0x00,0x21,0x64,0x3c,
0x21,0x00,0x00,0x2d,0x00,0x00,0x2d,0x64,0x00,0x21,0x64,0x3c,0x21,0x00,0x00,0x2d,
0x00,0x00,0x2d,0x64,0x00,0x21,0x64,0x3c,0x21,0x00,0x00,0x2d,0x00,0x00,0x2d,0x64,
0x00,0x21,0x64,0x3c,0x21,0x00,0x00,0x2d,0x00,0x00,0x2d,0x64,0x00,0x21,0x64,0x3c,
0x21,0x00,0x00,0x2d,0x00,0x00,0x1c,0x64,0x00,0x28,0x64,0x3c,0x28,0x00,0x00,0x1c,
0x00,0x00,0x1c,0x64,0x00,0x28,0x64,0x3c,0x28,0x00,0x00,0x1c,0x00,0x00,0x28,0x64,
0x00,0x1c,0x64,0x3c,0x1c,0x00,0x00,0x28,0x00,0x00,0x28,0x64,0x00,0x1c,0x64,0x3c,
0x1c,0x00,0x00,0x28,0x00,0x00,0x1c,0x64,0x00,0x28,0x64,0x3c,0x28,0x00,0x00,0x1c,
0x00,0x00,0x1c,0x64,0x00,0x28,0x64,0x3c,0x28,0x00,0x00,0x1c,0x00,0x00,0x1c,0x64,
0x00,0x28,0x64,0x3c,0x28,0x00,0x00,0x1c,0x00,0x00,0x1c,0x64,0x00,0x28,0x64,0x3c,
0x28,0x00,0x00,0x1c,0x00,0x00,0x28,0x64,0x00,0x34,0x64,0x3c,0x34,0x00,0x00,0x28,
0x00,0x00,0x28,0x64,0x00,0x34,0x64,0x3c,0x34,0x00,0x00,0x28,0x00,0x00,0x34,0x64,
0x00,0x28,0x64,0x3c,0x28,0x00,0x00,0x34,0x00,0x00,0x34,0x64,0x00,0x28,0x64,0x3c,
0x28,0x00,0x00,0x34,0x00,0x00,0x28,0x64,0x00,0x34,0x64,0x3c,0x34,0x00,0x00,0x28,
0x00,0x00,0x28,0x64,0x00,0x34,0x64,0x3c,0x34,0x00,0x00,0x28,0x00,0x00,0x28,0x64,
0x00,0x34,0x64,0x3c,0x34,0x00,0x00,0x28,0x00,0x00,0x28,0x64,0x00,0x34,0x64,0x3c,
0x34,0x00,0x00,0x28,0x00,0x00,0x1c,0x64,0x00,0x28,0x64,0x3c,0x28,0x00,0x00,0x1c,
0x00,0x00,0x1c,0x64,0x00,0x28,0x64,0x3c,0x28,0x00,0x00,0x1c,0x00,0x00,0x28,0x64,
0x00,0x1c,0x64,0x3c,0x1c,0x00,0x00,0x28,0x00,0x00,0x28,0x64,0x00,0x1c,0x64,0x3c,
0x1c,0x00,0x00,0x28,0x00,0x00,0x1c,0x64,0x00,0x28,0x64,0x3c,0x28,0x00,0x00,0x1c,
0x00,0x00,0x1c,0x64,0x00,0x28,0x64,0x3c,0x28,0x00,0x00,0x1c,0x00,0x00,0x1c,0x64,
0x00,0x28,0x64,0x3c,0x28,0x00,0x00,0x1c,0x00,0x00,0x1c,0x64,0x00,0x28,0x64,0x3c,
0x28,0x00,0x00,0x1c,0x00,0x00,0x28,0x64,0x00,0x34,0x64,0x3c,0x34,0x00,0x00,0x28,
0x00,0x00,0x28,0x64,0x00,0x34,0x64,0x3c,0x34,0x00,0x00,0x28,0x00,0x00,0x34,0x64,
0x00,0x28,0x64,0x3c,0x28,0x00,0x00,0x34,0x00,0x00,0x34,0x64,0x00,0x28,0x64,0x3c,
0x28,0x00,0x00,0x34,0x00,0x00,0x28,0x64,0x00,0x34,0x64,0x3c,0x34,0x00,0x00,0x28,
0x00,0x00,0x28,0x64,0x00,0x34,0x64,0x3c,0x34,0x00,0x00,0x28,0x00,0x00,0x28,0x64,
0x00,0x34,0x64,0x3c,0x34,0x00,0x00,0x28,0x00,0x00,0x28,0x64,0x00,0x34,0x64,0x3c,
0x34,0x00,0x00,0x28,0x00,0x00,0x1c,0x64,0x00,0x28,0x64,0x3c,0x28,0x00,0x00,0x1c,
0x00,0x00,0x1c,0x64,0x00,0x28,0x64,0x3c,0x28,0x00,0x00,0x1c,0x00,0x00,0x28,0x64,
0x00,0x1c,0x64,0x3c,0x1c,0x00,0x00,0x28,0x00,0x00,0x28,0x64,0x00,0x1c,0x64,0x3c,
0x1c,0x00,0x00,0x28,0x00,0x00,0x1c,0x64,0x00,0x28,0x64,0x3c,0x28,0x00,0x00,0x1c,
0x00,0x00,0x1c,0x64,0x00,0x28,0x64,0x3c,0x28,0x00,0x00,0x1c,0x00,0x00,0x1c,0x64,
0x00,0x28,0x64,0x3c,0x28,0x00,0x00,0x1c,0x00,0x00,0x1c,0x64,0x00,0x28,0x64,0x3c,
0x28,0x00,0x00,0x1c,0x00,0x00,0x28,0x64,0x3c,0x28,0x00,0x00,0x34,0x64,0x3c,0x34,
0x00,0x00,0x28,0x64,0x3c,0x28,0x00,0x00,0x34,0x64,0x3c,0x34,0x00,0x00,0x28,0x64,
0x3c,0x28,0x00,0x00,0x34,0x64,0x3c,0x34,0x00,0x00,0x28,0x64,0x3c,0x28,0x00,0x00,
0x34,0x64,0x3c,0x34,0x00,0x00,0x2d,0x64,0x3c,0x2d,0x00,0x00,0x39,0x64,0x3c,0x39,
0x00,0x00,0x2d,0x64,0x3c,0x2d,0x00,0x00,0x39,0x64,0x3c,0x39,0x00,0x00,0x2d,0x64,
0x3c,0x2d,0x00,0x00,0x39,0x64,0x3c,0x39,0x00,0x00,0x2d,0x64,0x3c,0x2d,0x00,0x00,
0x29,0x64,0x3c,0x29,0x00,0x00,0x2c,0x64,0x3c,0x2c,0x00,0x00,0x38,0x64,0x3c,0x38,
0x00,0x00,0x2c,0x64,0x3c,0x2c,0x00,0x00,0x38,0x64,0x3c,0x38,0x00,0x00,0x28,0x64,
0x3c,0x28,0x00,0x00,0x34,0x64,0x3c,0x34,0x00,0x00,0x28,0x64,0x3c,0x28,0x00,0x00,
0x34,0x64,0x3c,0x34,0x00,0x00,0x2d,0x64,0x3c,0x2d,0x00,0x00,0x39,0x64,0x3c,0x39,
0x00,0x00,0x2d,0x64,0x3c,0x2d,0x00,0x00,0x39,0x64,0x3c,0x39,0x00,0x00,0x2d,0x64,
0x3c,0x2d,0x00,0x00,0x39,0x64,0x3c,0x39,0x00,0x00,0x23,0x64,0x3c,0x23,0x00,0x00,
0x24,0x64,0x3c,0x24,0x00,0x00,0x26,0x64,0x3c,0x26,0x00,0x00,0x32,0x64,0x3c,0x32,
0x00,0x00,0x26,0x64,0x3c,0x26,0x00,0x00,0x32,0x64,0x3c,0x32,0x00,0x00,0x26,0x64,
0x3c,0x26,0x00,0x00,0x32,0x64,0x3c,0x32,0x00,0x00,0x26,0x64,0x3c,0x26,0x00,0x00,
0x32,0x64,0x3c,0x32,0x00,0x00,0x24,0x64,0x3c,0x24,0x00,0x00,0x30,0x64,0x3c,0x30,
0x00,0x00,0x24,0x64,0x3c,0x24,0x00,0x00,0x30,0x64,0x3c,0x30,0x00,0x00,0x24,0x64,
0x3c,0x24,0x00,0x00,0x30,0x64,0x3c,0x30,0x00,0x00,0x24,0x64,0x3c,0x24,0x00,0x00,
0x30,0x64,0x3c,0x30,0x00,0x00,0x2c,0x64,0x3c,0x2c,0x00,0x00,0x38,0x64,0x3c,0x38,
0x00,0x00,0x2c,0x64,0x3c,0x2c,0x00,0x00,0x38,0x64,0x3c,0x38,0x00,0x00,0x28,0x64,
0x3c,0x28,0x00,0x00,0x34,0x64,0x3c,0x34,0x00,0x00,0x28,0x64,0x3c,0x28,0x00,0x00,
0x34,0x64,0x3c,0x34,0x00,0x00,0x2d,0x64,0x3c,0x2d,0x00,0x00,0x39,0x64,0x3c,0x39,
0x00,0x00,0x2d,0x64,0x3c,0x2d,0x00,0x00,0x39,0x64,0x3c,0x39,0x00,0x00,0x2d,0x64,
0x3c,0x2d,0x00,0x00,0x39,0x64,0x3c,0x39,0x00,0x00,0x2d,0x64,0x3c,0x2d,0x00,0x00,
0x2c,0x64,0x3c,0x2c,0x00,0x00,0x28,0x64,0x3c,0x28,0x00,0x00,0x34,0x64,0x3c,0x34,
0x00,0x00,0x28,0x64,0x3c,0x28,0x00,0x00,0x34,0x64,0x3c,0x34,0x00,0x00,0x28,0x64,
0x3c,0x28,0x00,0x00,0x34,0x64,0x3c,0x34,0x00,0x00,0x28,0x64,0x3c,0x28,0x00,0x00,
0x34,0x64,0x3c,0x34,0x00,0x00,0x2d,0x64,0x3c,0x2d,0x00,0x00,0x39,0x64,0x3c,0x39,
0x00,0x00,0x2d,0x64,0x3c,0x2d,0x00,0x00,0x39,0x64,0x3c,0x39,0x00,0x00,0x2d,0x64,
0x3c,0x2d,0x00,0x00,0x39,0x64,0x3c,0x39,0x00,0x00,0x2d,0x64,0x3c,0x2d,0x00,0x00,
0x29,0x64,0x3c,0x29,0x00,0x00,0x2c,0x64,0x3c,0x2c,0x00,0x00,0x38,0x64,0x3c,0x38,
0x00,0x00,0x2c,0x64,0x3c,0x2c,0x00,0x00,0x38,0x64,0x3c,0x38,0x00,0x00,0x28,0x64,
0x3c,0x28,0x00,0x00,0x34,0x64,0x3c,0x34,0x00,0x00,0x28,0x64,0x3c,0x28,0x00,0x00,
0x34,0x64,0x3c,0x34,0x00,0x00,0x2d,0x64,0x3c,0x2d,0x00,0x00,0x39,0x64,0x3c,0x39,
0x00,0x00,0x2d,0x64,0x3c,0x2d,0x00,0x00,0x39,0x64,0x3c,0x39,0x00,0x00,0x2d,0x64,
0x3c,0x2d,0x00,0x00,0x39,0x64,0x3c,0x39,0x00,0x00,0x23,0x64,0x3c,0x23,0x00,0x00,
0x24,0x64,0x3c,0x24,0x00,0x00,0x26,0x64,0x3c,0x26,0x00,0x00,0x32,0x64,0x3c,0x32,
0x00,0x00,0x26,0x64,0x3c,0x26,0x00,0x00,0x32,0x64,0x3c,0x32,0x00,0x00,0x26,0x64,
0x3c,0x26,0x00,0x00,0x32,0x64,0x3c,0x32,0x00,0x00,0x26,0x64,0x3c,0x26,0x00,0x00,
0x32,0x64,0x3c,0x32,0x00,0x00,0x24,0x64,0x3c,0x24,0x00,0x00,0x30,0x64,0x3c,0x30,
0x00,0x00,0x24,0x64,0x3c,0x24,0x00,0x00,0x30,0x64,0x3c,0x30,0x00,0x00,0x24,0x64,
0x3c,0x24,0x00,0x00,0x30,0x64,0x3c,0x30,0x00,0x00,0x24,0x64,0x3c,0x24,0x00,0x00,
0x30,0x64,0x3c,0x30,0x00,0x00,0x2c,0x64,0x3c,0x2c,0x00,0x00,0x38,0x64,0x3c,0x38,
0x00,0x00,0x2c,0x64,0x3c,0x2c,0x00,0x00,0x38,0x64,0x3c,0x38,0x00,0x00,0x28,0x64,
0x3c,0x28,0x00,0x00,0x34,0x64,0x3c,0x34,0x00,0x00,0x28,0x64,0x3c,0x28,0x00,0x00,
0x34,0x64,0x3c,0x34,0x00,0x00,0x2d,0x64,0x3c,0x2d,0x00,0x00,0x39,0x64,0x3c,0x39,
0x00,0x00,0x2d,0x64,0x3c,0x2d,0x00,0x00,0x39,0x64,0x3c,0x39,0x00,0x00,0x2d,0x64,
0x3c,0x2d,0x00,0x00,0x39,0x64,0x3c,0x39,0x00,0x00,0x2d,0x64,0x3c,0x2d,0x00,0x00,
0x2c,0x64,0x3c,0x2c,0x00,0x00,0x21,0x64,0x83,0x60,0x21,0x00,0x00,0x1c,0x64,0x83,
0x60,0x1c,0x00,0x00,0x21,0x64,0x83,0x60,0x21,0x00,0x00,0x1c,0x64,0x83,0x60,0x1c,
0x00,0x00,0xff,0x2f,0x00,0x4d,0x54,0x72,0x6b,0x00,0x00,0x04,0x57,0x00,0xff,0x21,
0x01,0x00,0x00,0xff,0x03,0x08,0x43,0x6c,0x61,0x72,0x69,0x6e,0x65,0x74,0x00,0xb1,
0x00,0x00,0x00,0x20,0x00,0x00,0xc1,0x47,0x00,0xb1,0x07,0x7f,0x00,0x0a,0x40,0x00,
0x5b,0x40,0x00,0x5d,0x28,0x83,0x60,0x91,0x4c,0x73,0x78,0x4c,0x00,0x00,0x47,0x73,
0x3c,0x47,0x00,0x00,0x48,0x73,0x3c,0x48,0x00,0x00,0x4a,0x73,0x78,0x4a,0x00,0x00,
0x48,0x73,0x3c,0x48,0x00,0x00,0x47,0x73,0x3c,0x47,0x00,0x00,0x45,0x73,0x78,0x45,
0x00,0x00,0x45,0x73,0x3c,0x45,0x00,0x00,0x48,0x73,0x3c,0x48,0x00,0x00,0x4c,0x73,
0x78,0x4c,0x00,0x00,0x4a,0x73,0x3c,0x4a,0x00,0x00,0x48,0x73,0x3c,0x48,0x00,0x00,
0x47,0x73,0x81,0x34,0x47,0x00,0x00,0x48,0x73,0x3c,0x48,0x00,0x00,0x4a,0x73,0x78,
0x4a,0x00,0x00,0x4c,0x73,0x78,0x4c,0x00,0x00,0x48,0x73,0x78,0x48,0x00,0x00,0x45,
0x73,0x78,0x45,0x00,0x00,0x45,0x73,0x81,0x70,0x45,0x00,0x3c,0x4a,0x73,0x78,0x4a,
0x00,0x00,0x4d,0x73,0x3c,0x4d,0x00,0x00,0x51,0x73,0x78,0x51,0x00,0x00,0x4f,0x73,
0x3c,0x4f,0x00,0x00,0x4d,0x73,0x3c,0x4d,0x00,0x00,0x4c,0x73,0x81,0x34,0x4c,0x00,
0x00,0x48,0x73,0x3c,0x48,0x00,0x00,0x4c,0x73,0x78,0x4c,0x00,0x00,0x4a,0x73,0x3c,
0x4a,0x00,0x00,0x48,0x73,0x3c,0x48,0x00,0x00,0x47,0x73,0x78,0x47,0x00,0x00,0x47,
0x73,0x3c,0x47,0x00,0x00,0x48,0x73,0x3c,0x48,0x00,0x00,0x4a,0x73,0x78,0x4a,0x00,
0x00,0x4c,0x73,0x78,0x4c,0x00,0x00,0x48,0x73,0x78,0x48,0x00,0x00,0x45,0x73,0x78,
0x45,0x00,0x00,0x45,0x73,0x81,0x70,0x45,0x00,0x00,0x4c,0x73,0x78,0x4c,0x00,0x00,
0x47,0x73,0x3c,0x47,0x00,0x00,0x48,0x73,0x3c,0x48,0x00,0x00,0x4a,0x73,0x78,0x4a,
0x00,0x00,0x48,0x73,0x3c,0x48,0x00,0x00,0x47,0x73,0x14,0x47,0x00,0x00,0x48,0x73,
0x14,0x48,0x00,0x00,0x47,0x73,0x14,0x47,0x00,0x00,0x45,0x73,0x78,0x45,0x00,0x00,
0x45,0x73,0x3c,0x45,0x00,0x00,0x48,0x73,0x3c,0x48,0x00,0x00,0x4c,0x73,0x78,0x4c,
0x00,0x00,0x4a,0x73,0x3c,0x4a,0x00,0x00,0x48,0x73,0x3c,0x48,0x00,0x00,0x47,0x73,
0x81,0x34,0x47,0x00,0x00,0x48,0x73,0x3c,0x48,0x00,0x00,0x4a,0x73,0x78,0x4a,0x00,
0x00,0x4c,0x73,0x78,0x4c,0x00,0x00,0x48,0x73,0x78,0x48,0x00,0x00,0x45,0x73,0x78,
0x45,0x00,0x00,0x45,0x73,0x81,0x70,0x45,0x00,0x3c,0x4a,0x73,0x78,0x4a,0x00,0x00,
0x4d,0x73,0x3c,0x4d,0x00,0x00,0x51,0x73,0x78,0x51,0x00,0x00,0x4f,0x73,0x3c,0x4f,
0x00,0x00,0x4d,0x73,0x14,0x4d,0x00,0x00,0x4f,0x73,0x14,0x4f,0x00,0x00,0x4d,0x73,
0x14,0x4d,0x00,0x00,0x4c,0x73,0x81,0x34,0x4c,0x00,0x00,0x48,0x73,0x3c,0x48,0x00,
0x00,0x4c,0x73,0x78,0x4c,0x00,0x00,0x4a,0x73,0x3c,0x4a,0x00,0x00,0x48,0x73,0x3c,
0x48,0x00,0x00,0x47,0x73,0x78,0x47,0x00,0x00,0x47,0x73,0x3c,0x47,0x00,0x00,0x48,
0x73,0x3c,0x48,0x00,0x00,0x4a,0x73,0x78,0x4a,0x00,0x00,0x4c,0x73,0x78,0x4c,0x00,
0x00,0x48,0x73,0x78,0x48,0x00,0x00,0x45,0x73,0x78,0x45,0x00,0x00,0x45,0x73,0x81,
0x70,0x45,0x00,0x00,0x40,0x73,0x81,0x70,0x40,0x00,0x00,0x3c,0x73,0x81,0x70,0x3c,
0x00,0x00,0x3e,0x73,0x81,0x70,0x3e,0x00,0x00,0x3b,0x73,0x81,0x70,0x3b,0x00,0x00,
0x3c,0x73,0x81,0x70,0x3c,0x00,0x00,0x39,0x73,0x81,0x70,0x39,0x00,0x00,0x38,0x73,
0x81,0x70,0x38,0x00,0x00,0x3b,0x73,0x81,0x70,0x3b,0x00,0x9e,0x00,0x4c,0x73,0x78,
0x4c,0x00,0x00,0x47,0x73,0x3c,0x47,0x00,0x00,0x48,0x73,0x3c,0x48,0x00,0x00,0x4a,
0x73,0x78,0x4a,0x00,0x00,0x48,0x73,0x3c,0x48,0x00,0x00,0x47,0x73,0x3c,0x47,0x00,
0x00,0x45,0x73,0x78,0x45,0x00,0x00,0x45,0x73,0x3c,0x45,0x00,0x00,0x48,0x73,0x3c,
0x48,0x00,0x00,0x4c,0x73,0x78,0x4c,0x00,0x00,0x4a,0x73,0x3c,0x4a,0x00,0x00,0x48,
0x73,0x3c,0x48,0x00,0x00,0x47,0x73,0x81,0x34,0x47,0x00,0x00,0x48,0x73,0x3c,0x48,
0x00,0x00,0x4a,0x73,0x78,0x4a,0x00,0x00,0x4c,0x73,0x78,0x4c,0x00,0x00,0x48,0x73,
0x78,0x48,0x00,0x00,0x45,0x73,0x78,0x45,0x00,0x00,0x45,0x73,0x81,0x70,0x45,0x00,
0x3c,0x4a,0x73,0x78,0x4a,0x00,0x00,0x4d,0x73,0x3c,0x4d,0x00,0x00,0x51,0x73,0x78,
0x51,0x00,0x00,0x4f,0x73,0x3c,0x4f,0x00,0x00,0x4d,0x73,0x3c,0x4d,0x00,0x00,0x4c,
0x73,0x81,0x34,0x4c,0x00,0x00,0x48,0x73,0x3c,0x48,0x00,0x00,0x4c,0x73,0x78,0x4c,
0x00,0x00,0x4a,0x73,0x3c,0x4a,0x00,0x00,0x48,0x73,0x3c,0x48,0x00,0x00,0x47,0x73,
0x78,0x47,0x00,0x00,0x47,0x73,0x3c,0x47,0x00,0x00,0x48,0x73,0x3c,0x48,0x00,0x00,
0x4a,0x73,0x78,0x4a,0x00,0x00,0x4c,0x73,0x78,0x4c,0x00,0x00,0x48,0x73,0x78,0x48,
0x00,0x00,0x45,0x73,0x78,0x45,0x00,0x00,0x45,0x73,0x81,0x70,0x45,0x00,0x00,0x4c,
0x73,0x78,0x4c,0x00,0x00,0x47,0x73,0x3c,0x47,0x00,0x00,0x48,0x73,0x3c,0x48,0x00,
0x00,0x4a,0x73,0x78,0x4a,0x00,0x00,0x48,0x73,0x3c,0x48,0x00,0x00,0x47,0x73,0x14,
0x47,0x00,0x00,0x48,0x73,0x14,0x48,0x00,0x00,0x47,0x73,0x14,0x47,0x00,0x00,0x45,
0x73,0x78,0x45,0x00,0x00,0x45,0x73,0x3c,0x45,0x00,0x00,0x48,0x73,0x3c,0x48,0x00,
0x00,0x4c,0x73,0x78,0x4c,0x00,0x00,0x4a,0x73,0x3c,0x4a,0x00,0x00,0x48,0x73,0x3c,
0x48,0x00,0x00,0x47,0x73,0x81,0x34,0x47,0x00,0x00,0x48,0x73,0x3c,0x48,0x00,0x00,
0x4a,0x73,0x78,0x4a,0x00,0x00,0x4c,0x73,0x78,0x4c,0x00,0x00,0x48,0x73,0x78,0x48,
0x00,0x00,0x45,0x73,0x78,0x45,0x00,0x00,0x45,0x73,0x81,0x70,0x45,0x00,0x3c,0x4a,
0x73,0x78,0x4a,0x00,0x00,0x4d,0x73,0x3c,0x4d,0x00,0x00,0x51,0x73,0x78,0x51,0x00,
0x00,0x4f,0x73,0x3c,0x4f,0x00,0x00,0x4d,0x73,0x14,0x4d,0x00,0x00,0x4f,0x73,0x14,
0x4f,0x00,0x00,0x4d,0x73,0x14,0x4d,0x00,0x00,0x4c,0x73,0x81,0x34,0x4c,0x00,0x00,
};
