#include <stdint.h>
const uint8_t midifile[] = {
0x4d,0x54,0x68,0x64,0x00,0x00,0x00,0x06,0x00,0x01,0x00,0x02,0x04,0x00,0x4d,0x54,
0x72,0x6b,0x00,0x00,0x00,0x7a,0x00,0xff,0x54,0x05,0x00,0x00,0x00,0x00,0x00,0x00,
0xff,0x58,0x04,0x04,0x02,0x18,0x08,0x00,0xff,0x59,0x02,0x00,0x00,0x00,0xff,0x51,
0x03,0x07,0xa1,0x20,0x00,0xff,0x51,0x03,0x07,0xa1,0x20,0x01,0xff,0x51,0x03,0x07,
0xa1,0x20,0x8f,0x7f,0xff,0x51,0x03,0x07,0xa1,0x20,0x82,0x00,0xff,0x51,0x03,0x07,
0xc2,0x3a,0x82,0x00,0xff,0x51,0x03,0x07,0xc2,0x3a,0x82,0x00,0xff,0x51,0x03,0x07,
0xd3,0x34,0x82,0x00,0xff,0x51,0x03,0x07,0xd3,0x34,0x82,0x00,0xff,0x51,0x03,0x07,
0xe4,0x79,0x82,0x00,0xff,0x51,0x03,0x07,0xe4,0x79,0x82,0x00,0xff,0x51,0x03,0x07,
0xf6,0x0b,0x84,0x00,0xff,0x51,0x03,0x07,0xa1,0x20,0x87,0x9e,0x01,0xff,0x2f,0x00,
0x4d,0x54,0x72,0x6b,0x00,0x00,0x06,0xd8,0x00,0xff,0x09,0x1a,0x44,0x65,0x66,0x61,
0x75,0x6c,0x74,0x20,0x4d,0x49,0x44,0x49,0x20,0x4f,0x75,0x74,0x70,0x75,0x74,0x20,
0x44,0x65,0x76,0x69,0x63,0x65,0x00,0xff,0x03,0x05,0x50,0x69,0x61,0x6e,0x6f,0x00,
0xc0,0x00,0x00,0xb0,0x07,0x65,0x00,0xb0,0x0a,0x40,0x00,0xb0,0x07,0x6e,0x00,0xb0,
0x07,0x66,0x03,0xb0,0x65,0x00,0x00,0xb0,0x64,0x00,0x00,0xb0,0x65,0x00,0x00,0xb0,
0x64,0x00,0x01,0xb0,0x06,0x0c,0x00,0xb0,0x06,0x0c,0x01,0xb0,0x26,0x00,0x00,0xb0,
0x26,0x00,0x05,0xb0,0x07,0x6e,0x00,0x90,0x4c,0x45,0x00,0xb0,0x07,0x66,0x00,0x90,
0x34,0x39,0x84,0x18,0x90,0x40,0x34,0x1e,0x80,0x34,0x00,0x83,0x5d,0x80,0x4c,0x00,
0x01,0x90,0x47,0x41,0x00,0x90,0x34,0x35,0x1e,0x80,0x40,0x00,0x83,0x3c,0x80,0x47,
0x00,0x1f,0x90,0x48,0x40,0x00,0x90,0x40,0x34,0x1e,0x80,0x34,0x00,0x83,0x41,0x80,
0x48,0x00,0x1f,0x90,0x4a,0x43,0x00,0x90,0x34,0x37,0x1e,0x80,0x40,0x00,0x83,0x60,
0x90,0x40,0x34,0x1e,0x80,0x34,0x00,0x83,0x5a,0x80,0x4a,0x00,0x01,0x90,0x48,0x41,
0x00,0x90,0x34,0x35,0x1e,0x80,0x40,0x00,0x83,0x3c,0x80,0x48,0x00,0x1f,0x90,0x47,
0x40,0x00,0x90,0x40,0x34,0x1e,0x80,0x34,0x00,0x83,0x3e,0x80,0x47,0x00,0x23,0x90,
0x45,0x45,0x00,0x90,0x2d,0x39,0x1a,0x80,0x40,0x00,0x84,0x04,0x90,0x39,0x34,0x1e,
0x80,0x2d,0x00,0x83,0x5d,0x80,0x45,0x00,0x01,0x90,0x45,0x41,0x00,0x90,0x2d,0x35,
0x1e,0x80,0x39,0x00,0x83,0x3c,0x80,0x45,0x00,0x1f,0x90,0x48,0x40,0x00,0x90,0x39,
0x34,0x1e,0x80,0x2d,0x00,0x83,0x41,0x80,0x48,0x00,0x1f,0x90,0x4c,0x43,0x00,0x90,
0x2d,0x37,0x1e,0x80,0x39,0x00,0x83,0x60,0x90,0x39,0x34,0x1e,0x80,0x2d,0x00,0x83,
0x5a,0x80,0x4c,0x00,0x01,0x90,0x4a,0x41,0x00,0x90,0x2d,0x35,0x1e,0x80,0x39,0x00,
0x83,0x3c,0x80,0x4a,0x00,0x1f,0x90,0x48,0x40,0x00,0x90,0x39,0x34,0x1e,0x80,0x2d,
0x00,0x83,0x3e,0x80,0x48,0x00,0x23,0x90,0x47,0x45,0x00,0x90,0x2c,0x39,0x1a,0x80,
0x39,0x00,0x84,0x04,0x90,0x38,0x34,0x1e,0x80,0x2c,0x00,0x83,0x5d,0x80,0x47,0x00,
0x01,0x90,0x47,0x41,0x00,0x90,0x2c,0x35,0x1e,0x80,0x38,0x00,0x83,0x3c,0x80,0x47,
0x00,0x1f,0x90,0x48,0x40,0x00,0x90,0x38,0x34,0x1e,0x80,0x2c,0x00,0x83,0x41,0x80,
0x48,0x00,0x1f,0x90,0x4a,0x43,0x00,0x90,0x2c,0x37,0x1e,0x80,0x38,0x00,0x83,0x60,
0x90,0x38,0x34,0x1e,0x80,0x2c,0x00,0x83,0x5a,0x80,0x4a,0x00,0x01,0x90,0x4c,0x41,
0x00,0x90,0x2c,0x35,0x1e,0x80,0x38,0x00,0x83,0x5b,0x90,0x38,0x34,0x1e,0x80,0x2c,
0x00,0x83,0x5c,0x80,0x4c,0x00,0x05,0x90,0x48,0x45,0x00,0x90,0x2d,0x39,0x1a,0x80,
0x38,0x00,0x84,0x04,0x90,0x39,0x34,0x1e,0x80,0x2d,0x00,0x83,0x5d,0x80,0x48,0x00,
0x01,0x90,0x45,0x41,0x00,0x90,0x2d,0x35,0x1e,0x80,0x39,0x00,0x83,0x5b,0x90,0x39,
0x34,0x1e,0x80,0x2d,0x00,0x83,0x5f,0x80,0x45,0x00,0x01,0x90,0x45,0x43,0x00,0x90,
0x2d,0x37,0x1e,0x80,0x39,0x00,0x83,0x60,0x90,0x39,0x34,0x1e,0x80,0x2d,0x00,0x83,
0x5a,0x80,0x45,0x00,0x01,0x90,0x2f,0x2d,0x00,0x90,0x3b,0x3b,0x1e,0x80,0x39,0x00,
0x81,0x37,0xb0,0x07,0x6e,0x81,0x65,0x80,0x3b,0x00,0x3f,0x90,0x30,0x2c,0x00,0x90,
0x3c,0x3a,0x1e,0x80,0x2f,0x00,0x83,0x1e,0x80,0x3c,0x00,0x43,0x90,0x32,0x39,0x1a,
0x80,0x30,0x00,0x84,0x04,0x90,0x3e,0x34,0x1e,0x80,0x32,0x00,0x83,0x5e,0x90,0x4a,
0x41,0x00,0x90,0x32,0x35,0x1e,0x80,0x3e,0x00,0x83,0x5b,0x90,0x3e,0x34,0x1e,0x80,
0x32,0x00,0x83,0x5f,0x80,0x4a,0x00,0x01,0x90,0x4d,0x43,0x00,0x90,0x32,0x37,0x1e,
0x80,0x3e,0x00,0x83,0x41,0x80,0x4d,0x00,0x1f,0x90,0x51,0x40,0x00,0x90,0x3e,0x34,
0x1e,0x80,0x32,0x00,0x83,0x5b,0x90,0x32,0x35,0x1e,0x80,0x3e,0x00,0x83,0x3c,0x80,
0x51,0x00,0x1f,0x90,0x3e,0x34,0x1e,0x80,0x32,0x00,0x83,0x61,0x90,0x4f,0x45,0x00,
0x90,0x32,0x39,0x1a,0x80,0x3e,0x00,0x83,0x65,0x80,0x4f,0x00,0x1f,0x90,0x4d,0x40,
0x00,0x90,0x3e,0x34,0x1e,0x80,0x32,0x00,0x83,0x3f,0x80,0x4d,0x00,0x1f,0x90,0x4c,
0x41,0x00,0x90,0x30,0x35,0x1e,0x80,0x3e,0x00,0x83,0x5b,0x90,0x3c,0x34,0x1e,0x80,
0x30,0x00,0x83,0x60,0x90,0x30,0x37,0x1e,0x80,0x3c,0x00,0x83,0x60,0x90,0x3c,0x34,
0x1e,0x80,0x30,0x00,0x83,0x5a,0x80,0x4c,0x00,0x01,0x90,0x48,0x41,0x00,0x90,0x30,
0x35,0x1e,0x80,0x3c,0x00,0x83,0x3c,0x80,0x48,0x00,0x1f,0x90,0x4c,0x40,0x00,0x90,
0x3c,0x34,0x1e,0x80,0x30,0x00,0x83,0x61,0x90,0x30,0x39,0x1a,0x80,0x3c,0x00,0x84,
0x04,0x90,0x3c,0x34,0x1e,0x80,0x30,0x00,0x83,0x5d,0x80,0x4c,0x00,0x01,0x90,0x4a,
0x41,0x00,0x90,0x30,0x35,0x1e,0x80,0x3c,0x00,0x83,0x44,0x80,0x4a,0x00,0x17,0x90,
0x48,0x40,0x00,0x90,0x3c,0x34,0x1e,0x80,0x30,0x00,0x83,0x41,0x80,0x48,0x00,0x1f,
0x90,0x47,0x43,0x00,0x90,0x2c,0x37,0x1e,0x80,0x3c,0x00,0x83,0x60,0x90,0x38,0x34,
0x1e,0x80,0x2c,0x00,0x83,0x5b,0x90,0x2c,0x35,0x1e,0x80,0x38,0x00,0x83,0x56,0x80,
0x47,0x00,0x05,0x90,0x48,0x40,0x00,0x90,0x38,0x34,0x1e,0x80,0x2c,0x00,0x83,0x3e,
0x80,0x48,0x00,0x23,0x90,0x4a,0x45,0x00,0x90,0x2c,0x39,0x1a,0x80,0x38,0x00,0x84,
0x04,0x90,0x38,0x34,0x1e,0x80,0x2c,0x00,0x83,0x3f,0x80,0x4a,0x00,0x1f,0x90,0x4c,
0x41,0x00,0x90,0x2c,0x35,0x1e,0x80,0x38,0x00,0x83,0x5b,0x90,0x38,0x34,0x1e,0x80,
0x2c,0x00,0x83,0x5f,0x80,0x4c,0x00,0x01,0x90,0x48,0x43,0x00,0x90,0x2d,0x37,0x1e,
0x80,0x38,0x00,0x83,0x60,0x90,0x39,0x34,0x1e,0x80,0x2d,0x00,0x83,0x5a,0x80,0x48,
0x00,0x01,0x90,0x45,0x41,0x00,0x90,0x2d,0x35,0x1e,0x80,0x39,0x00,0x83,0x5b,0x90,
0x39,0x34,0x1e,0x80,0x2d,0x00,0x83,0x5c,0x80,0x45,0x00,0x05,0x90,0x45,0x45,0x00,
0x90,0x2d,0x39,0x1a,0x80,0x39,0x00,0x84,0x04,0x90,0x39,0x34,0x1e,0x80,0x2d,0x00,
0x83,0x5d,0x80,0x45,0x00,0x01,0x90,0x2d,0x35,0x1e,0x80,0x39,0x00,0x83,0x5b,0x90,
0x39,0x34,0x1e,0x80,0x2d,0x00,0x83,0x7e,0x80,0x39,0x00,0x81,0x2e,0xb0,0x07,0x66,
0x8e,0x23,0x90,0x4c,0x45,0x00,0x90,0x2d,0x39,0x84,0x1e,0x90,0x39,0x34,0x1e,0x80,
0x2d,0x00,0x83,0x5e,0x90,0x2d,0x35,0x1e,0x80,0x39,0x00,0x83,0x5b,0x90,0x39,0x34,
0x1e,0x80,0x2d,0x00,0x83,0x5f,0x80,0x4c,0x00,0x01,0x90,0x48,0x43,0x00,0x90,0x2d,
0x37,0x1e,0x80,0x39,0x00,0x83,0x60,0x90,0x39,0x34,0x1e,0x80,0x2d,0x00,0x83,0x5b,
0x90,0x2d,0x35,0x1e,0x80,0x39,0x00,0x83,0x5b,0x90,0x39,0x34,0x1e,0x80,0x2d,0x00,
0x83,0x5c,0x80,0x48,0x00,0x05,0x90,0x4a,0x45,0x00,0x90,0x2c,0x39,0x1a,0x80,0x39,
0x00,0x84,0x04,0x90,0x38,0x34,0x1e,0x80,0x2c,0x00,0x83,0x5e,0x90,0x2c,0x35,0x1e,
0x80,0x38,0x00,0x83,0x5b,0x90,0x38,0x34,0x1e,0x80,0x2c,0x00,0x83,0x5f,0x80,0x4a,
0x00,0x01,0x90,0x47,0x43,0x00,0x90,0x2c,0x37,0x1e,0x80,0x38,0x00,0x83,0x60,0x90,
0x38,0x34,0x1e,0x80,0x2c,0x00,0x83,0x5b,0x90,0x2c,0x35,0x1e,0x80,0x38,0x00,0x83,
0x5b,0x90,0x38,0x34,0x1e,0x80,0x2c,0x00,0x83,0x5c,0x80,0x47,0x00,0x05,0x90,0x48,
0x45,0x00,0x90,0x2d,0x39,0x1a,0x80,0x38,0x00,0x84,0x04,0x90,0x39,0x34,0x1e,0x80,
0x2d,0x00,0x83,0x5e,0x90,0x2d,0x35,0x1e,0x80,0x39,0x00,0x83,0x5b,0x90,0x39,0x34,
0x1e,0x80,0x2d,0x00,0x83,0x5f,0x80,0x48,0x00,0x01,0x90,0x45,0x43,0x00,0x90,0x2d,
0x37,0x1e,0x80,0x39,0x00,0x83,0x60,0x90,0x39,0x34,0x1e,0x80,0x2d,0x00,0x83,0x5b,
0x90,0x2d,0x35,0x1e,0x80,0x39,0x00,0x83,0x5b,0x90,0x39,0x34,0x1e,0x80,0x2d,0x00,
0x83,0x5c,0x80,0x45,0x00,0x05,0x90,0x44,0x45,0x00,0x90,0x2c,0x39,0x1a,0x80,0x39,
0x00,0x84,0x04,0x90,0x38,0x34,0x1e,0x80,0x2c,0x00,0x83,0x5e,0x90,0x2c,0x35,0x1e,
0x80,0x38,0x00,0x83,0x5b,0x90,0x38,0x34,0x1e,0x80,0x2c,0x00,0x83,0x5f,0x80,0x44,
0x00,0x01,0x90,0x47,0x43,0x00,0x90,0x2c,0x37,0x1e,0x80,0x38,0x00,0x83,0x60,0x90,
0x38,0x34,0x1e,0x80,0x2c,0x00,0x83,0x5b,0x90,0x2c,0x35,0x1e,0x80,0x38,0x00,0x83,
0x5b,0x90,0x38,0x34,0x1e,0x80,0x2c,0x00,0x83,0x5c,0x80,0x47,0x00,0x05,0x90,0x4c,
0x45,0x00,0x90,0x2d,0x39,0x1a,0x80,0x38,0x00,0x84,0x04,0x90,0x39,0x34,0x1e,0x80,
0x2d,0x00,0x83,0x5e,0x90,0x2d,0x35,0x1e,0x80,0x39,0x00,0x83,0x5b,0x90,0x39,0x34,
0x1e,0x80,0x2d,0x00,0x83,0x5f,0x80,0x4c,0x00,0x01,0x90,0x48,0x43,0x00,0x90,0x2d,
0x37,0x1e,0x80,0x39,0x00,0x83,0x60,0x90,0x39,0x34,0x1e,0x80,0x2d,0x00,0x83,0x5b,
0x90,0x2d,0x35,0x1e,0x80,0x39,0x00,0x83,0x5b,0x90,0x39,0x34,0x1e,0x80,0x2d,0x00,
0x83,0x5c,0x80,0x48,0x00,0x05,0x90,0x4a,0x45,0x00,0x90,0x2c,0x39,0x1a,0x80,0x39,
0x00,0x84,0x04,0x90,0x38,0x34,0x1e,0x80,0x2c,0x00,0x83,0x5e,0x90,0x2c,0x35,0x1e,
0x80,0x38,0x00,0x83,0x5b,0x90,0x38,0x34,0x1e,0x80,0x2c,0x00,0x83,0x5f,0x80,0x4a,
0x00,0x01,0x90,0x47,0x43,0x00,0x90,0x2c,0x37,0x1e,0x80,0x38,0x00,0x83,0x60,0x90,
0x38,0x34,0x1e,0x80,0x2c,0x00,0x83,0x5b,0x90,0x2c,0x35,0x1e,0x80,0x38,0x00,0x83,
0x5b,0x90,0x38,0x34,0x1e,0x80,0x2c,0x00,0x83,0x5c,0x80,0x47,0x00,0x05,0x90,0x48,
0x45,0x00,0x90,0x2d,0x39,0x1a,0x80,0x38,0x00,0x84,0x04,0x90,0x39,0x34,0x1e,0x80,
0x2d,0x00,0x83,0x5d,0x80,0x48,0x00,0x01,0x90,0x4c,0x41,0x00,0x90,0x2d,0x35,0x1e,
0x80,0x39,0x00,0x83,0x5b,0x90,0x39,0x34,0x1e,0x80,0x2d,0x00,0x83,0x5f,0x80,0x4c,
0x00,0x01,0x90,0x51,0x43,0x00,0x90,0x2d,0x37,0x1e,0x80,0x39,0x00,0x83,0x60,0x90,
0x39,0x34,0x1e,0x80,0x2d,0x00,0x83,0x5b,0x90,0x2d,0x35,0x1e,0x80,0x39,0x00,0x83,
0x5b,0x90,0x39,0x34,0x1e,0x80,0x2d,0x00,0x83,0x5c,0x80,0x51,0x00,0x05,0x90,0x50,
0x40,0x00,0x90,0x2c,0x39,0x1a,0x80,0x39,0x00,0x84,0x04,0x90,0x38,0x34,0x1e,0x80,
0x2c,0x00,0x83,0x5e,0x90,0x2c,0x35,0x1e,0x80,0x38,0x00,0x83,0x5b,0x90,0x38,0x34,
0x1e,0x80,0x2c,0x00,0x83,0x60,0x90,0x2c,0x37,0x1e,0x80,0x38,0x00,0x83,0x60,0x90,
0x38,0x34,0x1e,0x80,0x2c,0x00,0x83,0x5b,0x90,0x2c,0x35,0x1e,0x80,0x38,0x00,0x83,
0x5b,0x90,0x38,0x34,0x1e,0x80,0x2c,0x00,0x83,0x5c,0x80,0x50,0x00,0x1f,0x80,0x38,
0x00,0x81,0x43,0xb0,0x07,0x6e,0x00,0xb0,0x07,0x66,0x83,0x9e,0x20,0xff,0x2f,0x00,
};
