#include <stdint.h>
const uint8_t midifile[] = {
0x4d,0x54,0x68,0x64,0x00,0x00,0x00,0x06,0x00,0x01,0x00,0x03,0x04,0x00,0x4d,0x54,
0x72,0x6b,0x00,0x00,0x00,0x93,0x00,0xff,0x54,0x05,0x60,0x00,0x00,0x00,0x00,0x00,
0xff,0x58,0x04,0x03,0x02,0x18,0x08,0x00,0xff,0x59,0x02,0x00,0x00,0x00,0xff,0x51,
0x03,0x04,0x29,0x57,0x00,0xff,0x51,0x03,0x04,0x29,0x57,0x00,0xff,0x51,0x03,0x04,
0x29,0x88,0xd4,0x00,0xff,0x51,0x03,0x04,0x29,0x88,0x81,0x36,0xff,0x51,0x03,0x04,
0x30,0xad,0x81,0x36,0xff,0x51,0x03,0x04,0x35,0x97,0x81,0x36,0xff,0x51,0x03,0x04,
0x3a,0xd7,0x81,0x36,0xff,0x51,0x03,0x04,0x3f,0xd9,0x81,0x36,0xff,0x51,0x03,0x04,
0x44,0xe6,0x81,0x36,0xff,0x51,0x03,0x04,0x4a,0x00,0x81,0x36,0xff,0x51,0x03,0x04,
0x4f,0x25,0x82,0x06,0xff,0x51,0x03,0x04,0x29,0x88,0x82,0x00,0xff,0x51,0x03,0x04,
0x29,0x88,0x85,0xfe,0x00,0xff,0x51,0x03,0x04,0x29,0x88,0x82,0x00,0xff,0x51,0x03,
0x04,0x29,0x88,0x85,0xfd,0x7f,0xff,0x2f,0x00,0x4d,0x54,0x72,0x6b,0x00,0x00,0x07,
0xaa,0x00,0xff,0x09,0x16,0x53,0x6d,0x61,0x72,0x74,0x4d,0x75,0x73,0x69,0x63,0x20,
0x53,0x6f,0x66,0x74,0x53,0x79,0x6e,0x74,0x68,0x20,0x31,0x00,0xff,0x03,0x05,0x50,
0x69,0x61,0x6e,0x6f,0x00,0xc0,0x01,0x00,0xb0,0x07,0x65,0x00,0xb0,0x0a,0x2d,0x00,
0xb0,0x07,0x6e,0x03,0xb0,0x64,0x00,0x00,0xb0,0x65,0x00,0x01,0xb0,0x06,0x0c,0x01,
0xb0,0x26,0x00,0x05,0x90,0x3e,0x3e,0x88,0x10,0x90,0x3d,0x36,0x00,0x90,0x40,0x44,
0x27,0x80,0x3e,0x00,0x87,0x50,0x80,0x40,0x00,0x01,0x90,0x3c,0x36,0x00,0x90,0x42,
0x44,0x27,0x80,0x3d,0x00,0x87,0x46,0x80,0x42,0x00,0x05,0x90,0x3b,0x36,0x00,0x90,
0x43,0x44,0x23,0x80,0x3c,0x00,0x87,0x72,0x80,0x43,0x00,0x01,0x90,0x3c,0x36,0x00,
0x90,0x45,0x44,0x27,0x80,0x3b,0x00,0x87,0x50,0x80,0x45,0x00,0x01,0x90,0x3d,0x31,
0x00,0x90,0x46,0x3f,0x27,0x80,0x3c,0x00,0x86,0x74,0x80,0x3d,0x00,0x52,0x80,0x46,
0x00,0x05,0x90,0x3e,0x2f,0x00,0x90,0x47,0x3d,0x84,0x1b,0x80,0x3e,0x00,0x00,0x80,
0x47,0x00,0x01,0x90,0x3e,0x2a,0x00,0x90,0x47,0x34,0x83,0x79,0x80,0x3e,0x00,0x00,
0x80,0x47,0x00,0x01,0x90,0x3e,0x42,0x00,0x90,0x47,0x3d,0x83,0x11,0x80,0x3e,0x00,
0x00,0x80,0x47,0x00,0x84,0x67,0x90,0x40,0x44,0x00,0x90,0x47,0x3f,0x83,0x07,0x80,
0x40,0x00,0x00,0x80,0x47,0x00,0x84,0x6b,0x90,0x41,0x41,0x00,0x90,0x47,0x3c,0x90,
0x0d,0x80,0x41,0x00,0x00,0x80,0x47,0x00,0x01,0x90,0x43,0x41,0x87,0x6d,0x80,0x43,
0x00,0x05,0x90,0x43,0x36,0x00,0x90,0x4c,0x44,0x97,0x7b,0x80,0x43,0x00,0x00,0x80,
0x4c,0x00,0x05,0x90,0x42,0x36,0x00,0x90,0x4b,0x44,0x97,0x7b,0x80,0x42,0x00,0x00,
0x80,0x4b,0x00,0x05,0x90,0x43,0x36,0x00,0x90,0x4c,0x44,0x97,0x7b,0x80,0x43,0x00,
0x00,0x80,0x4c,0x00,0x84,0x21,0x90,0x43,0x3e,0x83,0x7a,0x90,0x45,0x3e,0x3c,0x80,
0x43,0x00,0x83,0x41,0x90,0x47,0x3e,0x3c,0x80,0x45,0x00,0x83,0x3f,0x90,0x48,0x3e,
0x3c,0x80,0x47,0x00,0x83,0x39,0x90,0x4a,0x3e,0x3c,0x80,0x48,0x00,0x83,0x41,0x90,
0x43,0x31,0x00,0x90,0x4c,0x3f,0x38,0x80,0x4a,0x00,0x96,0x71,0x80,0x43,0x00,0x52,
0x80,0x4c,0x00,0x05,0x90,0x42,0x36,0x00,0x90,0x4b,0x44,0x90,0x0d,0x80,0x42,0x00,
0x00,0x80,0x4b,0x00,0x01,0x90,0x45,0x39,0x00,0x90,0x4d,0x47,0x87,0x6d,0x80,0x45,
0x00,0x00,0x80,0x4d,0x00,0x05,0x90,0x43,0x36,0x00,0x90,0x4c,0x44,0x97,0x7b,0x80,
0x43,0x00,0x00,0x80,0x4c,0x00,0x94,0x08,0x90,0x43,0x3e,0x83,0x5a,0x80,0x43,0x00,
0x23,0x90,0x41,0x36,0x00,0x90,0x4a,0x44,0x97,0x7b,0x80,0x41,0x00,0x00,0x80,0x4a,
0x00,0x05,0x90,0x40,0x36,0x00,0x90,0x49,0x44,0x97,0x7b,0x80,0x40,0x00,0x00,0x80,
0x49,0x00,0x05,0x90,0x41,0x36,0x00,0x90,0x4a,0x44,0x97,0x7b,0x80,0x41,0x00,0x00,
0x80,0x4a,0x00,0x84,0x21,0x90,0x43,0x3e,0x83,0x7a,0x90,0x45,0x3e,0x3c,0x80,0x43,
0x00,0x83,0x41,0x90,0x47,0x3e,0x3c,0x80,0x45,0x00,0x83,0x3f,0x90,0x48,0x3e,0x3c,
0x80,0x47,0x00,0x83,0x39,0x90,0x49,0x3e,0x3c,0x80,0x48,0x00,0x83,0x41,0x90,0x41,
0x31,0x00,0x90,0x4a,0x3f,0x38,0x80,0x49,0x00,0x96,0x71,0x80,0x41,0x00,0x52,0x80,
0x4a,0x00,0x05,0x90,0x3b,0x36,0x00,0x90,0x43,0x44,0x90,0x0d,0x80,0x3b,0x00,0x00,
0x80,0x43,0x00,0x01,0x90,0x45,0x39,0x00,0x90,0x4d,0x47,0x87,0x6d,0x80,0x45,0x00,
0x00,0x80,0x4d,0x00,0x05,0x90,0x43,0x36,0x00,0x90,0x4c,0x44,0x97,0x7b,0x80,0x43,
0x00,0x00,0x80,0x4c,0x00,0x94,0x08,0x90,0x43,0x3e,0x83,0x5a,0x80,0x43,0x00,0x23,
0x90,0x4c,0x41,0x00,0x90,0x4f,0x3c,0x97,0x7b,0x80,0x4c,0x00,0x00,0x80,0x4f,0x00,
0x05,0x90,0x4a,0x41,0x00,0x90,0x4f,0x3c,0x97,0x7b,0x80,0x4a,0x00,0x00,0x80,0x4f,
0x00,0x05,0x90,0x49,0x41,0x00,0x90,0x4f,0x3c,0x97,0x7b,0x80,0x49,0x00,0x00,0x80,
0x4f,0x00,0x05,0x90,0x4f,0x3e,0x88,0x16,0x90,0x51,0x39,0x27,0x80,0x4f,0x00,0x84,
0x18,0x80,0x51,0x00,0x87,0x2e,0x90,0x4f,0x3e,0x83,0x5a,0x80,0x4f,0x00,0x23,0x90,
0x4a,0x41,0x00,0x90,0x4d,0x3c,0x97,0x7b,0x80,0x4a,0x00,0x00,0x80,0x4d,0x00,0x05,
0x90,0x49,0x41,0x00,0x90,0x4d,0x3c,0x97,0x7b,0x80,0x49,0x00,0x00,0x80,0x4d,0x00,
0x05,0x90,0x48,0x41,0x00,0x90,0x4d,0x3c,0x97,0x7b,0x80,0x48,0x00,0x00,0x80,0x4d,
0x00,0x05,0x90,0x4d,0x3e,0x88,0x16,0x90,0x4f,0x39,0x27,0x80,0x4d,0x00,0x84,0x18,
0x80,0x4f,0x00,0x87,0x2e,0x90,0x4d,0x3e,0x83,0x5a,0x80,0x4d,0x00,0x23,0x90,0x48,
0x36,0x00,0x90,0x4c,0x44,0x97,0x7b,0x80,0x48,0x00,0x00,0x80,0x4c,0x00,0x05,0x90,
0x41,0x36,0x00,0x90,0x45,0x44,0x88,0x15,0x80,0x45,0x00,0x01,0x90,0x43,0x36,0x00,
0x90,0x47,0x44,0x27,0x80,0x41,0x00,0x87,0x50,0x80,0x47,0x00,0x01,0x90,0x47,0x36,
0x00,0x90,0x4d,0x44,0x27,0x80,0x43,0x00,0x87,0x46,0x80,0x47,0x00,0x00,0x80,0x4d,
0x00,0x05,0x90,0x47,0x2a,0x00,0x90,0x4c,0x38,0x84,0x1b,0x80,0x47,0x00,0x00,0x80,
0x4c,0x00,0x01,0x90,0x47,0x2a,0x00,0x90,0x4c,0x34,0x83,0x79,0x80,0x47,0x00,0x00,
0x80,0x4c,0x00,0x01,0x90,0x47,0x36,0x00,0x90,0x4c,0x44,0x8b,0x6c,0x80,0x47,0x00,
0x00,0x80,0x4c,0x00,0x01,0x90,0x41,0x36,0x00,0x90,0x47,0x44,0x83,0x78,0x80,0x47,
0x00,0x05,0x90,0x40,0x31,0x00,0x90,0x48,0x3f,0x38,0x80,0x41,0x00,0x96,0x71,0x80,
0x40,0x00,0x52,0x80,0x48,0x00,0x05,0x90,0x3e,0x3e,0x88,0x16,0x90,0x3d,0x36,0x00,
0x90,0x40,0x44,0x27,0x80,0x3e,0x00,0x87,0x50,0x80,0x40,0x00,0x01,0x90,0x3c,0x36,
0x00,0x90,0x42,0x44,0x27,0x80,0x3d,0x00,0x87,0x46,0x80,0x42,0x00,0x05,0x90,0x3b,
0x36,0x00,0x90,0x43,0x44,0x23,0x80,0x3c,0x00,0x87,0x72,0x80,0x43,0x00,0x01,0x90,
0x3c,0x36,0x00,0x90,0x45,0x44,0x27,0x80,0x3b,0x00,0x87,0x50,0x80,0x45,0x00,0x01,
0x90,0x3d,0x31,0x00,0x90,0x46,0x3f,0x27,0x80,0x3c,0x00,0x86,0x74,0x80,0x3d,0x00,
0x52,0x80,0x46,0x00,0x05,0x90,0x3e,0x2f,0x00,0x90,0x47,0x3d,0x84,0x1b,0x80,0x3e,
0x00,0x00,0x80,0x47,0x00,0x01,0x90,0x3e,0x2a,0x00,0x90,0x47,0x34,0x83,0x79,0x80,
0x3e,0x00,0x00,0x80,0x47,0x00,0x01,0x90,0x3e,0x42,0x00,0x90,0x47,0x3d,0x83,0x11,
0x80,0x3e,0x00,0x00,0x80,0x47,0x00,0x84,0x67,0x90,0x40,0x44,0x00,0x90,0x47,0x3f,
0x83,0x07,0x80,0x40,0x00,0x00,0x80,0x47,0x00,0x84,0x6b,0x90,0x41,0x41,0x00,0x90,
0x47,0x3c,0x90,0x0d,0x80,0x41,0x00,0x00,0x80,0x47,0x00,0x01,0x90,0x43,0x41,0x87,
0x6d,0x80,0x43,0x00,0x05,0x90,0x43,0x36,0x00,0x90,0x4c,0x44,0x97,0x7b,0x80,0x43,
0x00,0x00,0x80,0x4c,0x00,0x05,0x90,0x42,0x36,0x00,0x90,0x4b,0x44,0x97,0x7b,0x80,
0x42,0x00,0x00,0x80,0x4b,0x00,0x05,0x90,0x43,0x36,0x00,0x90,0x4c,0x44,0x97,0x7b,
0x80,0x43,0x00,0x00,0x80,0x4c,0x00,0x84,0x21,0x90,0x43,0x3e,0x83,0x7a,0x90,0x45,
0x3e,0x3c,0x80,0x43,0x00,0x83,0x41,0x90,0x47,0x3e,0x3c,0x80,0x45,0x00,0x83,0x3f,
0x90,0x48,0x3e,0x3c,0x80,0x47,0x00,0x83,0x39,0x90,0x4a,0x3e,0x3c,0x80,0x48,0x00,
0x83,0x41,0x90,0x43,0x31,0x00,0x90,0x4c,0x3f,0x38,0x80,0x4a,0x00,0x96,0x71,0x80,
0x43,0x00,0x52,0x80,0x4c,0x00,0x05,0x90,0x42,0x36,0x00,0x90,0x4b,0x44,0x90,0x0d,
0x80,0x42,0x00,0x00,0x80,0x4b,0x00,0x01,0x90,0x45,0x39,0x00,0x90,0x4d,0x47,0x87,
0x6d,0x80,0x45,0x00,0x00,0x80,0x4d,0x00,0x05,0x90,0x43,0x36,0x00,0x90,0x4c,0x44,
0x97,0x7b,0x80,0x43,0x00,0x00,0x80,0x4c,0x00,0x94,0x08,0x90,0x43,0x3e,0x83,0x5a,
0x80,0x43,0x00,0x23,0x90,0x41,0x36,0x00,0x90,0x4a,0x44,0x97,0x7b,0x80,0x41,0x00,
0x00,0x80,0x4a,0x00,0x05,0x90,0x40,0x36,0x00,0x90,0x49,0x44,0x97,0x7b,0x80,0x40,
0x00,0x00,0x80,0x49,0x00,0x05,0x90,0x41,0x36,0x00,0x90,0x4a,0x44,0x97,0x7b,0x80,
0x41,0x00,0x00,0x80,0x4a,0x00,0x84,0x21,0x90,0x43,0x3e,0x83,0x7a,0x90,0x45,0x3e,
0x3c,0x80,0x43,0x00,0x83,0x41,0x90,0x47,0x3e,0x3c,0x80,0x45,0x00,0x83,0x3f,0x90,
0x48,0x3e,0x3c,0x80,0x47,0x00,0x83,0x39,0x90,0x49,0x3e,0x3c,0x80,0x48,0x00,0x83,
0x41,0x90,0x41,0x31,0x00,0x90,0x4a,0x3f,0x38,0x80,0x49,0x00,0x96,0x71,0x80,0x41,
0x00,0x52,0x80,0x4a,0x00,0x05,0x90,0x3b,0x36,0x00,0x90,0x43,0x44,0x90,0x0d,0x80,
0x3b,0x00,0x00,0x80,0x43,0x00,0x01,0x90,0x45,0x39,0x00,0x90,0x4d,0x47,0x87,0x6d,
0x80,0x45,0x00,0x00,0x80,0x4d,0x00,0x05,0x90,0x43,0x36,0x00,0x90,0x4c,0x44,0x97,
0x7b,0x80,0x43,0x00,0x00,0x80,0x4c,0x00,0x94,0x08,0x90,0x43,0x3e,0x83,0x5a,0x80,
0x43,0x00,0x23,0x90,0x4c,0x41,0x00,0x90,0x4f,0x3c,0x97,0x7b,0x80,0x4c,0x00,0x00,
0x80,0x4f,0x00,0x05,0x90,0x4a,0x41,0x00,0x90,0x4f,0x3c,0x97,0x7b,0x80,0x4a,0x00,
0x00,0x80,0x4f,0x00,0x05,0x90,0x49,0x41,0x00,0x90,0x4f,0x3c,0x97,0x7b,0x80,0x49,
0x00,0x00,0x80,0x4f,0x00,0x05,0x90,0x4f,0x3e,0x88,0x16,0x90,0x51,0x39,0x27,0x80,
0x4f,0x00,0x84,0x18,0x80,0x51,0x00,0x87,0x2e,0x90,0x4f,0x3e,0x83,0x5a,0x80,0x4f,
0x00,0x23,0x90,0x4a,0x41,0x00,0x90,0x4d,0x3c,0x97,0x7b,0x80,0x4a,0x00,0x00,0x80,
0x4d,0x00,0x05,0x90,0x49,0x41,0x00,0x90,0x4d,0x3c,0x97,0x7b,0x80,0x49,0x00,0x00,
0x80,0x4d,0x00,0x05,0x90,0x48,0x41,0x00,0x90,0x4d,0x3c,0x97,0x7b,0x80,0x48,0x00,
0x00,0x80,0x4d,0x00,0x05,0x90,0x4d,0x3e,0x88,0x16,0x90,0x4f,0x39,0x27,0x80,0x4d,
0x00,0x84,0x18,0x80,0x4f,0x00,0x87,0x2e,0x90,0x4d,0x3e,0x83,0x5a,0x80,0x4d,0x00,
0x23,0x90,0x48,0x36,0x00,0x90,0x4c,0x44,0x97,0x7b,0x80,0x48,0x00,0x00,0x80,0x4c,
0x00,0x05,0x90,0x41,0x36,0x00,0x90,0x45,0x44,0x88,0x15,0x80,0x45,0x00,0x01,0x90,
0x43,0x36,0x00,0x90,0x47,0x44,0x27,0x80,0x41,0x00,0x87,0x50,0x80,0x47,0x00,0x01,
0x90,0x47,0x36,0x00,0x90,0x4d,0x44,0x27,0x80,0x43,0x00,0x87,0x46,0x80,0x47,0x00,
0x00,0x80,0x4d,0x00,0x05,0x90,0x47,0x2a,0x00,0x90,0x4c,0x38,0x84,0x1b,0x80,0x47,
0x00,0x00,0x80,0x4c,0x00,0x01,0x90,0x47,0x2a,0x00,0x90,0x4c,0x34,0x83,0x79,0x80,
0x47,0x00,0x00,0x80,0x4c,0x00,0x01,0x90,0x47,0x36,0x00,0x90,0x4c,0x44,0x8b,0x6c,
0x80,0x47,0x00,0x00,0x80,0x4c,0x00,0x01,0x90,0x41,0x36,0x00,0x90,0x47,0x44,0x83,
0x78,0x80,0x47,0x00,0x05,0x90,0x40,0x31,0x00,0x90,0x48,0x3f,0x38,0x80,0x41,0x00,
0x96,0x71,0x80,0x40,0x00,0x52,0x80,0x48,0x00,0x05,0x90,0x3e,0x3e,0x88,0x16,0x90,
0x3d,0x36,0x00,0x90,0x40,0x44,0x27,0x80,0x3e,0x00,0x87,0x50,0x80,0x40,0x00,0x01,
0x90,0x3c,0x36,0x00,0x90,0x42,0x44,0x27,0x80,0x3d,0x00,0x87,0x46,0x80,0x42,0x00,
0x05,0x90,0x3b,0x36,0x00,0x90,0x43,0x44,0x23,0x80,0x3c,0x00,0x87,0x72,0x80,0x43,
0x00,0x01,0x90,0x3c,0x36,0x00,0x90,0x45,0x44,0x27,0x80,0x3b,0x00,0x87,0x50,0x80,
0x45,0x00,0x01,0x90,0x3d,0x31,0x00,0x90,0x46,0x3f,0x27,0x80,0x3c,0x00,0x86,0x74,
0x80,0x3d,0x00,0x52,0x80,0x46,0x00,0x05,0x90,0x3e,0x2f,0x00,0x90,0x47,0x3d,0x84,
0x1b,0x80,0x3e,0x00,0x00,0x80,0x47,0x00,0x01,0x90,0x3e,0x2a,0x00,0x90,0x47,0x34,
0x83,0x79,0x80,0x3e,0x00,0x00,0x80,0x47,0x00,0x01,0x90,0x3e,0x42,0x00,0x90,0x47,
0x3d,0x83,0x11,0x80,0x3e,0x00,0x00,0x80,0x47,0x00,0x84,0x67,0x90,0x40,0x44,0x00,
0x90,0x47,0x3f,0x83,0x07,0x80,0x40,0x00,0x00,0x80,0x47,0x00,0x84,0x6b,0x90,0x41,
0x41,0x00,0x90,0x47,0x3c,0x90,0x0d,0x80,0x41,0x00,0x00,0x80,0x47,0x00,0x01,0x90,
0x43,0x41,0x87,0x6d,0x80,0x43,0x00,0x00,0xff,0x2f,0x00,0x4d,0x54,0x72,0x6b,0x00,
0x00,0x06,0xf8,0x00,0xff,0x09,0x16,0x53,0x6d,0x61,0x72,0x74,0x4d,0x75,0x73,0x69,
0x63,0x20,0x53,0x6f,0x66,0x74,0x53,0x79,0x6e,0x74,0x68,0x20,0x31,0x00,0xff,0x03,
0x0b,0x49,0x6e,0x73,0x74,0x72,0x75,0x6d,0x65,0x6e,0x74,0x32,0x00,0xc1,0x01,0x00,
0xb1,0x07,0x65,0x00,0xb1,0x0a,0x51,0x00,0xb1,0x07,0x66,0x03,0xb1,0x64,0x00,0x00,
0xb1,0x65,0x00,0x01,0xb1,0x06,0x0c,0x01,0xb1,0x26,0x00,0xc0,0x0d,0x91,0x37,0x43,
0x83,0x07,0x81,0x37,0x00,0x84,0x6b,0x91,0x37,0x40,0x97,0x7b,0x81,0x37,0x00,0x05,
0x91,0x30,0x39,0x83,0x2f,0x81,0x30,0x00,0x84,0x67,0x91,0x37,0x35,0x83,0x11,0x81,
0x37,0x00,0x84,0x67,0x91,0x3c,0x37,0x83,0x07,0x81,0x3c,0x00,0x84,0x6b,0x91,0x2f,
0x39,0x83,0x2f,0x81,0x2f,0x00,0x84,0x67,0x91,0x36,0x35,0x83,0x11,0x81,0x36,0x00,
0x84,0x67,0x91,0x3b,0x37,0x83,0x07,0x81,0x3b,0x00,0x84,0x6b,0x91,0x30,0x39,0x83,
0x2f,0x81,0x30,0x00,0x84,0x67,0x91,0x37,0x35,0x83,0x11,0x81,0x37,0x00,0x84,0x67,
0x91,0x3c,0x37,0x83,0x07,0x81,0x3c,0x00,0x84,0x6b,0x91,0x34,0x39,0x83,0x2f,0x81,
0x34,0x00,0x84,0x67,0x91,0x37,0x35,0x83,0x11,0x81,0x37,0x00,0x84,0x67,0x91,0x3c,
0x37,0x83,0x07,0x81,0x3c,0x00,0x84,0x6b,0x91,0x30,0x39,0x83,0x2f,0x81,0x30,0x00,
0x84,0x67,0x91,0x37,0x35,0x83,0x11,0x81,0x37,0x00,0x84,0x67,0x91,0x3c,0x37,0x83,
0x07,0x81,0x3c,0x00,0x84,0x6b,0x91,0x2f,0x39,0x83,0x2f,0x81,0x2f,0x00,0x84,0x67,
0x91,0x36,0x35,0x83,0x11,0x81,0x36,0x00,0x84,0x67,0x91,0x3b,0x37,0x83,0x07,0x81,
0x3b,0x00,0x84,0x6b,0x91,0x30,0x39,0x83,0x2f,0x81,0x30,0x00,0x84,0x67,0x91,0x37,
0x35,0x83,0x11,0x81,0x37,0x00,0x84,0x67,0x91,0x3c,0x37,0x83,0x07,0x81,0x3c,0x00,
0x84,0x6b,0x91,0x34,0x39,0x83,0x2f,0x81,0x34,0x00,0x84,0x67,0x91,0x37,0x35,0x83,
0x11,0x81,0x37,0x00,0x84,0x67,0x91,0x3c,0x37,0x83,0x07,0x81,0x3c,0x00,0x84,0x6b,
0x91,0x32,0x39,0x83,0x2f,0x81,0x32,0x00,0x84,0x67,0x91,0x37,0x35,0x83,0x11,0x81,
0x37,0x00,0x84,0x67,0x91,0x3b,0x37,0x83,0x07,0x81,0x3b,0x00,0x84,0x6b,0x91,0x31,
0x39,0x83,0x2f,0x81,0x31,0x00,0x84,0x67,0x91,0x36,0x35,0x83,0x11,0x81,0x36,0x00,
0x84,0x67,0x91,0x3a,0x37,0x83,0x07,0x81,0x3a,0x00,0x84,0x6b,0x91,0x32,0x39,0x83,
0x2f,0x81,0x32,0x00,0x84,0x67,0x91,0x37,0x35,0x83,0x11,0x81,0x37,0x00,0x84,0x67,
0x91,0x3b,0x37,0x83,0x07,0x81,0x3b,0x00,0x84,0x6b,0x91,0x2f,0x39,0x83,0x2f,0x81,
0x2f,0x00,0x84,0x67,0x91,0x32,0x35,0x83,0x11,0x81,0x32,0x00,0x84,0x67,0x91,0x3b,
0x37,0x83,0x07,0x81,0x3b,0x00,0x84,0x6b,0x91,0x32,0x39,0x83,0x2f,0x81,0x32,0x00,
0x84,0x67,0x91,0x37,0x35,0x83,0x11,0x81,0x37,0x00,0x84,0x67,0x91,0x3b,0x37,0x83,
0x07,0x81,0x3b,0x00,0x84,0x6b,0x91,0x2f,0x39,0x83,0x2f,0x81,0x2f,0x00,0x84,0x67,
0x91,0x32,0x35,0x83,0x11,0x81,0x32,0x00,0x84,0x67,0x91,0x3b,0x37,0x83,0x07,0x81,
0x3b,0x00,0x84,0x6b,0x91,0x30,0x39,0x83,0x2f,0x81,0x30,0x00,0x84,0x67,0x91,0x37,
0x35,0x83,0x11,0x81,0x37,0x00,0x84,0x67,0x91,0x3c,0x37,0x83,0x07,0x81,0x3c,0x00,
0x84,0x6b,0x91,0x2b,0x39,0x83,0x2f,0x81,0x2b,0x00,0x84,0x67,0x91,0x37,0x35,0x83,
0x11,0x81,0x37,0x00,0x84,0x67,0x91,0x3c,0x37,0x83,0x07,0x81,0x3c,0x00,0x84,0x6b,
0x91,0x30,0x39,0x83,0x2f,0x81,0x30,0x00,0x84,0x67,0x91,0x37,0x35,0x83,0x11,0x81,
0x37,0x00,0x84,0x67,0x91,0x40,0x37,0x83,0x07,0x81,0x40,0x00,0x84,0x6b,0x91,0x2f,
0x39,0x83,0x2f,0x81,0x2f,0x00,0x84,0x67,0x91,0x37,0x35,0x83,0x11,0x81,0x37,0x00,
0x84,0x67,0x91,0x3e,0x37,0x83,0x07,0x81,0x3e,0x00,0x84,0x6b,0x91,0x2e,0x39,0x83,
0x2f,0x81,0x2e,0x00,0x84,0x67,0x91,0x37,0x35,0x83,0x11,0x81,0x37,0x00,0x84,0x67,
0x91,0x3d,0x37,0x83,0x07,0x81,0x3d,0x00,0x84,0x6b,0x91,0x31,0x39,0x83,0x2f,0x81,
0x31,0x00,0x84,0x67,0x91,0x37,0x35,0x83,0x11,0x81,0x37,0x00,0x84,0x67,0x91,0x40,
0x37,0x83,0x07,0x81,0x40,0x00,0x84,0x6b,0x91,0x32,0x39,0x83,0x2f,0x81,0x32,0x00,
0x84,0x67,0x91,0x39,0x35,0x83,0x11,0x81,0x39,0x00,0x84,0x67,0x91,0x41,0x37,0x83,
0x07,0x81,0x41,0x00,0x84,0x6b,0x91,0x31,0x39,0x83,0x2f,0x81,0x31,0x00,0x84,0x67,
0x91,0x39,0x35,0x83,0x11,0x81,0x39,0x00,0x84,0x67,0x91,0x41,0x37,0x83,0x07,0x81,
0x41,0x00,0x84,0x6b,0x91,0x30,0x39,0x83,0x2f,0x81,0x30,0x00,0x84,0x67,0x91,0x39,
0x35,0x83,0x11,0x81,0x39,0x00,0x84,0x67,0x91,0x41,0x37,0x83,0x07,0x81,0x41,0x00,
0x84,0x6b,0x91,0x2f,0x39,0x83,0x2f,0x81,0x2f,0x00,0x84,0x67,0x91,0x37,0x35,0x83,
0x11,0x81,0x37,0x00,0x84,0x67,0x91,0x41,0x37,0x83,0x07,0x81,0x41,0x00,0x84,0x6b,
0x91,0x24,0x37,0x83,0x2f,0x81,0x24,0x00,0x84,0x67,0x91,0x37,0x35,0x83,0x11,0x81,
0x37,0x00,0x84,0x67,0x91,0x40,0x37,0x83,0x07,0x81,0x40,0x00,0x84,0x6b,0x91,0x2b,
0x39,0x83,0x2f,0x81,0x2b,0x00,0x84,0x67,0x91,0x37,0x35,0x83,0x11,0x81,0x37,0x00,
0x84,0x67,0x91,0x37,0x37,0x83,0x07,0x81,0x37,0x00,0x84,0x6b,0x91,0x35,0x34,0x84,
0x1b,0x81,0x35,0x00,0x01,0x91,0x35,0x34,0x83,0x79,0x81,0x35,0x00,0x01,0x91,0x35,
0x40,0x8b,0x6d,0x91,0x2f,0x40,0x3c,0x81,0x35,0x00,0x83,0x41,0x91,0x30,0x40,0x38,
0x81,0x2f,0x00,0xd7,0x03,0x81,0x30,0x00,0x53,0x91,0x37,0x43,0x83,0x07,0x81,0x37,
0x00,0x84,0x6b,0x91,0x37,0x40,0x97,0x7b,0x81,0x37,0x00,0x05,0x91,0x30,0x39,0x83,
0x2f,0x81,0x30,0x00,0x84,0x67,0x91,0x37,0x35,0x83,0x11,0x81,0x37,0x00,0x84,0x67,
0x91,0x3c,0x37,0x83,0x07,0x81,0x3c,0x00,0x84,0x6b,0x91,0x2f,0x39,0x83,0x2f,0x81,
0x2f,0x00,0x84,0x67,0x91,0x36,0x35,0x83,0x11,0x81,0x36,0x00,0x84,0x67,0x91,0x3b,
0x37,0x83,0x07,0x81,0x3b,0x00,0x84,0x6b,0x91,0x30,0x39,0x83,0x2f,0x81,0x30,0x00,
0x84,0x67,0x91,0x37,0x35,0x83,0x11,0x81,0x37,0x00,0x84,0x67,0x91,0x3c,0x37,0x83,
0x07,0x81,0x3c,0x00,0x84,0x6b,0x91,0x34,0x39,0x83,0x2f,0x81,0x34,0x00,0x84,0x67,
0x91,0x37,0x35,0x83,0x11,0x81,0x37,0x00,0x84,0x67,0x91,0x3c,0x37,0x83,0x07,0x81,
0x3c,0x00,0x84,0x6b,0x91,0x30,0x39,0x83,0x2f,0x81,0x30,0x00,0x84,0x67,0x91,0x37,
0x35,0x83,0x11,0x81,0x37,0x00,0x84,0x67,0x91,0x3c,0x37,0x83,0x07,0x81,0x3c,0x00,
0x84,0x6b,0x91,0x2f,0x39,0x83,0x2f,0x81,0x2f,0x00,0x84,0x67,0x91,0x36,0x35,0x83,
0x11,0x81,0x36,0x00,0x84,0x67,0x91,0x3b,0x37,0x83,0x07,0x81,0x3b,0x00,0x84,0x6b,
0x91,0x30,0x39,0x83,0x2f,0x81,0x30,0x00,0x84,0x67,0x91,0x37,0x35,0x83,0x11,0x81,
0x37,0x00,0x84,0x67,0x91,0x3c,0x37,0x83,0x07,0x81,0x3c,0x00,0x84,0x6b,0x91,0x34,
0x39,0x83,0x2f,0x81,0x34,0x00,0x84,0x67,0x91,0x37,0x35,0x83,0x11,0x81,0x37,0x00,
0x84,0x67,0x91,0x3c,0x37,0x83,0x07,0x81,0x3c,0x00,0x84,0x6b,0x91,0x32,0x39,0x83,
0x2f,0x81,0x32,0x00,0x84,0x67,0x91,0x37,0x35,0x83,0x11,0x81,0x37,0x00,0x84,0x67,
0x91,0x3b,0x37,0x83,0x07,0x81,0x3b,0x00,0x84,0x6b,0x91,0x31,0x39,0x83,0x2f,0x81,
0x31,0x00,0x84,0x67,0x91,0x36,0x35,0x83,0x11,0x81,0x36,0x00,0x84,0x67,0x91,0x3a,
0x37,0x83,0x07,0x81,0x3a,0x00,0x84,0x6b,0x91,0x32,0x39,0x83,0x2f,0x81,0x32,0x00,
0x84,0x67,0x91,0x37,0x35,0x83,0x11,0x81,0x37,0x00,0x84,0x67,0x91,0x3b,0x37,0x83,
0x07,0x81,0x3b,0x00,0x84,0x6b,0x91,0x2f,0x39,0x83,0x2f,0x81,0x2f,0x00,0x84,0x67,
0x91,0x32,0x35,0x83,0x11,0x81,0x32,0x00,0x84,0x67,0x91,0x3b,0x37,0x83,0x07,0x81,
0x3b,0x00,0x84,0x6b,0x91,0x32,0x39,0x83,0x2f,0x81,0x32,0x00,0x84,0x67,0x91,0x37,
0x35,0x83,0x11,0x81,0x37,0x00,0x84,0x67,0x91,0x3b,0x37,0x83,0x07,0x81,0x3b,0x00,
0x84,0x6b,0x91,0x2f,0x39,0x83,0x2f,0x81,0x2f,0x00,0x84,0x67,0x91,0x32,0x35,0x83,
0x11,0x81,0x32,0x00,0x84,0x67,0x91,0x3b,0x37,0x83,0x07,0x81,0x3b,0x00,0x84,0x6b,
0x91,0x30,0x39,0x83,0x2f,0x81,0x30,0x00,0x84,0x67,0x91,0x37,0x35,0x83,0x11,0x81,
0x37,0x00,0x84,0x67,0x91,0x3c,0x37,0x83,0x07,0x81,0x3c,0x00,0x84,0x6b,0x91,0x2b,
0x39,0x83,0x2f,0x81,0x2b,0x00,0x84,0x67,0x91,0x37,0x35,0x83,0x11,0x81,0x37,0x00,
0x84,0x67,0x91,0x3c,0x37,0x83,0x07,0x81,0x3c,0x00,0x84,0x6b,0x91,0x30,0x39,0x83,
0x2f,0x81,0x30,0x00,0x84,0x67,0x91,0x37,0x35,0x83,0x11,0x81,0x37,0x00,0x84,0x67,
0x91,0x40,0x37,0x83,0x07,0x81,0x40,0x00,0x84,0x6b,0x91,0x2f,0x39,0x83,0x2f,0x81,
0x2f,0x00,0x84,0x67,0x91,0x37,0x35,0x83,0x11,0x81,0x37,0x00,0x84,0x67,0x91,0x3e,
0x37,0x83,0x07,0x81,0x3e,0x00,0x84,0x6b,0x91,0x2e,0x39,0x83,0x2f,0x81,0x2e,0x00,
0x84,0x67,0x91,0x37,0x35,0x83,0x11,0x81,0x37,0x00,0x84,0x67,0x91,0x3d,0x37,0x83,
0x07,0x81,0x3d,0x00,0x84,0x6b,0x91,0x31,0x39,0x83,0x2f,0x81,0x31,0x00,0x84,0x67,
0x91,0x37,0x35,0x83,0x11,0x81,0x37,0x00,0x84,0x67,0x91,0x40,0x37,0x83,0x07,0x81,
0x40,0x00,0x84,0x6b,0x91,0x32,0x39,0x83,0x2f,0x81,0x32,0x00,0x84,0x67,0x91,0x39,
0x35,0x83,0x11,0x81,0x39,0x00,0x84,0x67,0x91,0x41,0x37,0x83,0x07,0x81,0x41,0x00,
0x84,0x6b,0x91,0x31,0x39,0x83,0x2f,0x81,0x31,0x00,0x84,0x67,0x91,0x39,0x35,0x83,
0x11,0x81,0x39,0x00,0x84,0x67,0x91,0x41,0x37,0x83,0x07,0x81,0x41,0x00,0x84,0x6b,
0x91,0x30,0x39,0x83,0x2f,0x81,0x30,0x00,0x84,0x67,0x91,0x39,0x35,0x83,0x11,0x81,
0x39,0x00,0x84,0x67,0x91,0x41,0x37,0x83,0x07,0x81,0x41,0x00,0x84,0x6b,0x91,0x2f,
0x39,0x83,0x2f,0x81,0x2f,0x00,0x84,0x67,0x91,0x37,0x35,0x83,0x11,0x81,0x37,0x00,
0x84,0x67,0x91,0x41,0x37,0x83,0x07,0x81,0x41,0x00,0x84,0x6b,0x91,0x24,0x37,0x83,
0x2f,0x81,0x24,0x00,0x84,0x67,0x91,0x37,0x35,0x83,0x11,0x81,0x37,0x00,0x84,0x67,
0x91,0x40,0x37,0x83,0x07,0x81,0x40,0x00,0x84,0x6b,0x91,0x2b,0x39,0x83,0x2f,0x81,
0x2b,0x00,0x84,0x67,0x91,0x37,0x35,0x83,0x11,0x81,0x37,0x00,0x84,0x67,0x91,0x37,
0x37,0x83,0x07,0x81,0x37,0x00,0x84,0x6b,0x91,0x35,0x34,0x84,0x1b,0x81,0x35,0x00,
0x01,0x91,0x35,0x34,0x83,0x79,0x81,0x35,0x00,0x01,0x91,0x35,0x40,0x8b,0x6d,0x91,
0x2f,0x40,0x3c,0x81,0x35,0x00,0x83,0x41,0x91,0x30,0x40,0x38,0x81,0x2f,0x00,0xd7,
0x03,0x81,0x30,0x00,0x53,0x91,0x37,0x43,0x83,0x07,0x81,0x37,0x00,0x84,0x6b,0x91,
0x37,0x40,0x97,0x7b,0x81,0x37,0x00,0x00,0xff,0x2f,0x00,
};
